<svg xmlns="http://www.w3.org/2000/svg" xmlns:xlink="http://www.w3.org/1999/xlink" width="1130" height="877" viewBox="0 0 1130 877">
  <defs>
    <filter id="Subtraction_3" x="0" y="0" width="1130" height="877" filterUnits="userSpaceOnUse">
      <feOffset dx="24" input="SourceAlpha"/>
      <feGaussianBlur stdDeviation="20" result="blur"/>
      <feFlood/>
      <feComposite operator="in" in2="blur"/>
      <feComposite in="SourceGraphic"/>
    </filter>
  </defs>
  <g id="hero_cut" transform="translate(891 -1370)">
    <g transform="matrix(1, 0, 0, 1, -891, 1370)" filter="url(#Subtraction_3)">
      <path id="Subtraction_3-2" data-name="Subtraction 3" d="M1218.04,1024H357V267h880.587c10.094,12.514,19.784,25.6,28.8,38.885,9.057,13.344,17.66,27.224,25.57,41.255,7.957,14.114,15.409,28.73,22.149,43.44,6.791,14.821,13.03,30.108,18.542,45.437,5.562,15.466,10.523,31.363,14.747,47.248,4.267,16.049,7.889,32.491,10.765,48.871,2.909,16.57,5.128,33.5,6.6,50.307,1.486,17.027,2.24,34.373,2.24,51.557,0,18.517-.875,37.2-2.6,55.53-1.7,18.082-4.276,36.272-7.647,54.062-3.33,17.573-7.522,35.189-12.458,52.36-4.884,16.986-10.615,33.951-17.035,50.422-6.362,16.321-13.554,32.555-21.378,48.251-7.766,15.579-16.34,31-25.485,45.844-9.1,14.76-18.973,29.3-29.358,43.2-10.35,13.86-21.451,27.428-33,40.328Z" transform="translate(-321 -207)" fill="rgba(255,255,255,0.11)"/>
    </g>
    <path id="Subtraction_2" data-name="Subtraction 2" d="M1199.306,1024H357V264h859.625c9.294,12.943,18.2,26.4,26.479,39.987,8.317,13.656,16.207,27.8,23.451,42.032,7.287,14.319,14.107,29.1,20.268,43.923,6.205,14.932,11.9,30.293,16.93,45.659A631.978,631.978,0,0,1,1335,632.5c0,18.278-.789,36.733-2.345,54.851-1.536,17.89-3.86,35.906-6.906,53.546-3.011,17.437-6.8,34.949-11.274,52.049-4.424,16.923-9.623,33.867-15.451,50.359-5.777,16.347-12.316,32.657-19.435,48.477-7.067,15.705-14.881,31.317-23.226,46.4-8.3,15-17.322,29.85-26.825,44.137-9.464,14.228-19.635,28.251-30.232,41.678Z" transform="translate(-1218 1165)" fill="rgba(255,255,255,0.22)"/>
    <path id="Subtraction_1" data-name="Subtraction 1" d="M1594.468,1050H799V290h813.128a643.287,643.287,0,0,1,80.5,578.683c-5.681,16.36-12.114,32.694-19.12,48.548-6.953,15.736-14.644,31.39-22.858,46.527-8.164,15.046-17.05,29.957-26.409,44.318-9.318,14.3-19.335,28.4-29.774,41.924Z" transform="translate(-1660 1139)" fill="rgba(255,255,255,0.33)"/>
  </g>
</svg>
