<svg xmlns="http://www.w3.org/2000/svg" width="82" height="35" viewBox="0 0 82 35">
  <g id="logowht" transform="translate(-441 -1119)">
    <g id="Subtraction_1" data-name="Subtraction 1" transform="translate(441 1119)" fill="none">
      <path d="M56,35H17.5A17.5,17.5,0,0,1,5.126,5.126,17.385,17.385,0,0,1,17.5,0H56A17.43,17.43,0,0,1,67.134,4H16.06a12.014,12.014,0,0,0-12,12v3a12.013,12.013,0,0,0,12,12H67.135A17.429,17.429,0,0,1,56,35Z" stroke="none"/>
      <path d="M 55.99799346923828 35.00010299682617 L 17.49960517883301 35.00010299682617 C 12.82552623748779 35.00010299682617 8.431058883666992 33.17971801757812 5.125725746154785 29.87427711486816 C 1.820352435112 26.56875610351562 5.773112206952646e-06 22.17402267456055 5.773112206952646e-06 17.49959564208984 C 5.773112206952646e-06 12.82556915283203 1.820352435112 8.431116104125977 5.125725746154785 5.125716209411621 C 8.431112289428711 1.820356249809265 12.82556533813477 -3.742268972928287e-06 17.49960517883301 -3.742268972928287e-06 L 55.99799346923828 -3.742268972928287e-06 C 58.06708526611328 -3.742268972928287e-06 60.0924072265625 0.3576095998287201 62.01767349243164 1.062916278839111 C 63.87796401977539 1.744396209716797 65.59932708740234 2.732449531555176 67.13392639160156 3.999596357345581 L 16.05960655212402 3.999596357345581 C 9.442938804626465 3.999596357345581 4.05989933013916 9.383049964904785 4.05989933013916 16.00019645690918 L 4.05989933013916 18.99990272521973 C 4.05989933013916 25.61655616760254 9.442938804626465 30.99959564208984 16.05960655212402 30.99959564208984 L 67.13492584228516 30.99959564208984 C 65.59877777099609 32.26830291748047 63.87709808349609 33.25599670410156 62.01832580566406 33.93700790405273 C 60.09292602539062 34.64242172241211 58.0673942565918 35.00010299682617 55.99799346923828 35.00010299682617 Z" stroke="none" fill="#fff"/>
    </g>
    <text id="REATA" transform="translate(457 1144)" fill="#fff" font-size="23" font-family="FranklinGothic-Medium, Franklin Gothic" font-weight="500"><tspan x="0" y="0">REATA</tspan></text>
  </g>
</svg>
